<svg width="57" height="50" xmlns="http://www.w3.org/2000/svg">
 <g>
  <title>next_page</title>
  <path fill="#fff" stroke="#000" opacity="NaN" d="m196,285" id="svg_5"/>
  <path stroke="#0000ff" fill="none" d="m30.9926,44.50135c1.48702,-0.65641 2.70671,-1.26767 0.39677,-1.28555c-2.04,0.32974 -7.31732,-2.094 -3.08777,-3.28533c2.64606,-1.24254 8.66791,1.62745 8.70001,-3.28171c-0.47868,-3.07654 -8.24635,-0.6744 -5.69104,-4.80045c2.8142,-1.38394 8.39455,1.8768 9.3386,-2.40565c-0.8654,-4.15235 -6.27821,-1.50233 -8.99883,-2.6499c-2.63743,0.65428 -3.33199,-3.51681 -0.37195,-2.88723c6.84281,-0.444 13.73335,0.20762 20.55259,-0.69846c1.10154,-0.73382 1.91579,-5.24785 0.5257,-5.55183c-9.93352,-0.24755 -19.8846,-0.02001 -29.8024,-0.75841c-3.56314,-0.0445 -0.84071,-4.6204 1.79225,-3.54577c2.50804,-0.98775 3.50199,-3.57771 5.34272,-6.13509c0.94064,-5.58994 -3.58019,-3.51521 -5.42647,-1.87946c-2.06164,1.62553 -5.60773,4.99966 -7.4889,6.77095c-1.64904,1.43409 -5.44829,3.02543 -7.75941,4.94781c-1.97547,0.84433 -4.13722,0.42398 -6.07749,0.57559c0,7.57375 0,15.14739 0,22.72115c5.48935,2.87467 11.26567,5.39978 17.35134,5.11092c3.56495,-0.01746 7.2323,0.14289 10.70428,-0.96156l0,0l0,-0.00001zm-22.61637,2.42918c-2.80223,-1.29492 -5.59938,-2.60636 -8.37622,-3.97837c0.13288,-9.458 0.26577,-18.91612 0.39865,-28.37413c2.21705,-0.10126 5.5068,1.22135 7.08706,-0.72615c4.24862,-1.64 7.00705,-5.26733 10.73157,-7.98985c2.62106,-2.47699 4.71464,-3.32239 7.42184,-5.2009c2.05624,-1.14363 3.1696,-0.55963 5.48505,-0.06101c1.00987,1.98754 2.26355,3.01479 1.613,6.80108c-1.35746,0.82123 -3.11908,6.3408 -0.45144,6.38466c7.4267,0.85593 14.97298,-0.3471 22.34127,1.14884c1.83476,2.98742 2.18467,9.69895 -1.17338,11.59343c-3.21359,1.11743 -6.60186,0.56313 -9.90352,0.6975c-0.0002,2.82622 0.38831,6.43289 -2.21997,7.8526c-1.92594,3.02107 -2.06137,7.45919 -5.16476,9.66979c-2.61004,3.21655 -6.32551,4.21017 -9.94958,4.10412c-5.94259,0.09689 -12.19771,0.78204 -17.83956,-1.92142l0,-0.00021l0,0.00001z" id="svg_17"/>
 </g>

</svg>