<svg width="50" height="34" xmlns="http://www.w3.org/2000/svg">
 <g>
  <title>previous_page</title>
  <path fill="#fff" stroke="#000" opacity="NaN" d="m196,285" id="svg_5"/>
  <path fill="none" stroke="#0000ff" d="m441.22687,323.16159c4.22207,-1.44678 7.68512,-2.79404 1.12654,-2.83347c-5.79216,0.72679 -20.77596,-4.61536 -8.76706,-7.24115c7.51292,-2.73866 24.61068,3.58702 24.70181,-7.23316c-1.35909,-6.78095 -23.41374,-1.48643 -16.15848,-10.58058c7.99034,-3.05031 23.83453,4.13662 26.51494,-5.30225c-2.45711,-9.15211 -17.82564,-3.31127 -25.55025,-5.8406c-7.48841,1.44208 -9.46047,-7.75133 -1.05606,-6.36369c19.4287,-0.9786 38.99292,0.45761 58.35469,-1.53947c3.12758,-1.61739 5.43948,-11.56668 1.49261,-12.23669c-28.20412,-0.54562 -56.45809,-0.04412 -84.61757,-1.6716c-10.11677,-0.0981 -2.387,-10.18374 5.08872,-7.81516c7.12105,-2.17709 9.94314,-7.88556 15.16952,-13.52224c2.67076,-12.3207 -10.16519,-7.74781 -15.40731,-4.14249c-5.85358,3.58279 -15.92196,11.01965 -21.26314,14.92372c-4.68208,3.16084 -15.46925,6.6683 -22.03119,10.90537c-5.60891,1.86098 -11.74676,0.93448 -17.25574,1.26865c0,16.69317 0,33.3861 0,50.07927c15.58583,6.33601 31.98645,11.90156 49.26544,11.26489c10.12192,-0.03848 20.53458,0.31494 30.39251,-2.11935l0.00001,0l0.00001,0zm-64.21435,5.35412c-7.95634,-2.85412 -15.89825,-5.74462 -23.7825,-8.76865c0.3773,-20.84622 0.7546,-41.69267 1.13188,-62.53889c6.29485,-0.22318 15.63538,2.69196 20.1222,-1.60049c12.06306,-3.61471 19.89502,-11.60963 30.47,-17.61028c7.44194,-5.45949 13.38622,-7.32281 21.07275,-11.46319c5.83826,-2.52065 8.99939,-1.23346 15.57362,-0.13447c2.86732,4.38069 6.42687,6.64484 4.57979,14.99013c-3.85421,1.81006 -8.85595,13.97563 -1.28178,14.07231c21.08653,1.88655 42.51259,-0.76504 63.43325,2.53215c5.20941,6.58452 6.20291,21.37729 -3.33157,25.55288c-9.1243,2.46291 -18.74458,1.24119 -28.11894,1.53735c-0.00057,6.22923 1.10253,14.17862 -6.30312,17.30778c-5.46828,6.65869 -5.85283,16.44066 -14.66424,21.313c-7.41066,7.08954 -17.95992,9.27955 -28.24971,9.04581c-16.87272,0.21355 -34.63278,1.72368 -50.65162,-4.23497l0,-0.00047l-0.00001,0.00001l0,-0.00001z" id="svg_21" filter="url(#svg_21_blur)"/>
  <path stroke="#0000ff" fill="none" d="m22.35572,32.26498c-2.4176,-1.41105 -0.76035,-5.91114 -2.3657,-8.17641c-2.13111,-1.90493 -0.34909,-5.93783 -2.06777,-8.17954c-1.23098,-1.63392 -0.86175,-4.08489 -0.60483,-6.18964c-4.89087,-0.05786 -9.78689,0.15325 -14.67326,-0.1928c-2.48484,0.31465 -3.2931,-4.48915 -2.10533,-7.08929c1.15144,-2.7623 3.59653,-2.04257 5.44571,-2.31048c10.68219,-0.18887 21.36723,-0.15022 32.0496,0.00718c2.83774,0.19674 6.08534,-0.29361 8.32761,2.87192c2.67108,3.72681 2.63302,9.66769 2.63827,14.73033c-0.06949,4.72238 -0.47692,10.32556 -3.36781,13.13851c-2.69098,2.69106 -6.07227,1.88444 -9.13293,2.11884c-4.59359,-0.07375 -9.21764,0.25667 -13.7875,-0.55712l-0.35606,-0.17149l0,0l0,0l0,0zm11.39776,-2.59434c1.58327,-2.75975 -0.57885,-5.03781 -2.40901,-4.31475c-2.65409,-0.02589 -5.36819,-0.41824 -7.97734,0.43119c-2.24797,1.27673 -0.79826,5.29406 1.22716,4.48654c2.96709,0.25172 5.99642,0.44756 8.92429,-0.41455l0.2349,-0.18843l0,0l0,0zm10.83879,-0.53482c2.57497,-2.13743 2.59423,-7.02893 2.67152,-10.8728c-0.05621,-4.05598 0.28052,-8.49805 -1.15828,-12.13015c-1.18988,-2.66399 -3.40612,-3.56922 -5.44751,-3.46962c-3.84129,0.00926 -7.73953,-0.44898 -11.53467,0.62047c-2.57517,0.82629 -3.65472,5.14299 -3.85633,8.64691c-0.07947,3.39104 -0.2994,6.88222 0.20139,10.2122c1.19126,1.23593 2.61303,-2.2455 3.15174,-3.78966c0.7098,-2.86896 -0.10192,-6.45029 1.33315,-8.89348c1.43395,-2.32555 4.10392,-2.09702 5.34693,0.46373c1.37782,2.26859 -0.07944,5.33111 0.2997,7.98973c0.68258,2.44017 -0.11511,4.7816 -0.14103,7.00465c0.68032,1.68826 0.47324,3.693 0.26491,5.53016c2.66492,-0.14184 5.40219,0.41902 7.9978,-0.66804c0.30387,-0.17004 0.59412,-0.39128 0.8707,-0.6441l0,0l0,0zm-20.80192,-8.83207c0.35964,-3.36601 -3.06675,-3.09521 -3.36893,-0.3858c-0.72104,3.00584 2.89517,3.82562 3.41617,1.72794c0.00608,-0.44882 -0.0231,-0.89559 -0.04725,-1.34214l0,0zm10.26649,0.10381c0.23276,-2.89873 -3.3798,-2.92761 -4.06896,-0.89227c-0.3853,1.2365 -1.65045,3.74828 0.18631,3.09427c1.24064,-0.4186 4.12998,0.92195 3.88265,-2.202l0,0l0,0zm-10.26516,-7.64482c-0.12387,-0.72292 0.49846,-2.5278 -0.18615,-2.43769c-1.51401,0.24939 -3.13681,-0.1113 -4.55528,0.78375c-1.27762,2.61375 0.86208,5.16684 2.61744,4.30976c1.28087,0.0282 2.28707,-0.3058 2.12399,-2.65581l0,0l0,0zm10.02867,1.85057c1.45622,-2.34387 -0.81491,-5.39583 -2.45685,-3.85003c-1.70925,1.32843 -1.19873,6.16919 1.08275,4.71217c0.48818,-0.1339 1.00911,-0.31957 1.3741,-0.86214l0,0zm-8.74311,-9.43327c0.32934,-0.86202 0.65869,-1.72405 0.98803,-2.58608c-7.3961,0.05912 -14.79578,-0.15148 -22.18887,0.17943c-2.00798,-0.8172 -3.62943,3.7403 -1.12155,4.51097c3.94896,0.76337 7.95509,0.37447 11.92895,0.48614c3.13513,-0.00149 6.27026,-0.00292 9.40539,-0.00441c0.32935,-0.86202 0.65869,-1.72405 0.98803,-2.58608l0,0.00002l0,0z" id="svg_25"/>
 </g>

</svg>